<?xml version="1.0" encoding="UTF-8" standalone="no"?>
<!-- Created with Inkscape (http://www.inkscape.org/) -->

<svg
   xmlns:dc="http://purl.org/dc/elements/1.1/"
   xmlns:cc="http://creativecommons.org/ns#"
   xmlns:rdf="http://www.w3.org/1999/02/22-rdf-syntax-ns#"
   xmlns:svg="http://www.w3.org/2000/svg"
   xmlns="http://www.w3.org/2000/svg"
   xmlns:sodipodi="http://sodipodi.sourceforge.net/DTD/sodipodi-0.dtd"
   xmlns:inkscape="http://www.inkscape.org/namespaces/inkscape"
   width="400"
   height="400"
   id="svg2"
   version="1.1"
   inkscape:version="0.48.2 r9819"
   sodipodi:docname="绘图.svg">
  <metadata
     id="metadata3023">
    <rdf:RDF>
      <cc:Work
         rdf:about="">
        <dc:format>image/svg+xml</dc:format>
        <dc:type
           rdf:resource="http://purl.org/dc/dcmitype/StillImage" />
        <dc:title />
      </cc:Work>
    </rdf:RDF>
  </metadata>
  <defs
     id="defs3021" />
  <sodipodi:namedview
     pagecolor="#ffffff"
     bordercolor="#666666"
     borderopacity="1"
     objecttolerance="10"
     gridtolerance="10"
     guidetolerance="10"
     inkscape:pageopacity="0"
     inkscape:pageshadow="2"
     inkscape:window-width="1440"
     inkscape:window-height="838"
     id="namedview3019"
     showgrid="true"
     showguides="true"
     inkscape:guide-bbox="true"
     inkscape:zoom="2"
     inkscape:cx="98.7005"
     inkscape:cy="525.384"
     inkscape:window-x="-8"
     inkscape:window-y="-8"
     inkscape:window-maximized="1"
     inkscape:current-layer="svg2">
    <inkscape:grid
       type="xygrid"
       id="grid3025" />
    <sodipodi:guide
       orientation="0,1"
       position="-32.958367,200"
       id="guide3027" />
    <sodipodi:guide
       orientation="1,0"
       position="140,280"
       id="guide3029" />
  </sodipodi:namedview>
  <path
     d="M 10,200 L 11,187 C 15,149 23,136 70,97 C 93,78 100,68 101,57 C 104,31 81,23 65,23 C 46,22 23,34 35,62 L 12,68 C 8,43 12,18 33,8 C 61,-6 96,-1 115,21 C 127,36 129,56 123,72 C 104,113 39,131 35,179 H 105 V 152 H 127 V 200 L 10,200 z"
     id="p2"
     inkscape:connector-curvature="0"
     style="fill:#000000" />
  <path
     d="M 2,156 L 18,145 C 31,167 47,181 70,178 C 104,176 119,140 112,113 C 105,89 76,77 53,90 C 47,93 43,96 41,96 C 39,96 33,85 34,82 C 50,59 87,21 87,21 H 28 V 47 H 6 V 0 H 120 V 16 C 120,16 90,48 80,64 C 104,65 125,81 132,105 C 136,118 135,148 129,160 C 119,182 94,199 71,200 C 33,202 12,176 2,156 L 2,156 z"
     id="p3"
     inkscape:connector-curvature="0" />
  <path
     d="M 70,200 L 70,183 L 86,183 L 86,153 L 5,153 L 5,133 L 93,0 L 107,0 L 107,133 L 132,133 L 132,153 L 107,153 L 107,183 L 120,183 L 120,200 z M 86,49 L 30,133 L 86,133 z"
     id="p4"
     inkscape:connector-curvature="0"
     sodipodi:nodetypes="cccccccccccccccccccc" />
  <path
     d="M 4,148 L 24,148 C 28,160 37,173 48,176 C 80,183 101,166 108,144 C 116,120 107,84 85,71 C 67,61 40,70 27,92 L 13,83 L 20,0 H 112 V 20 H 37 L 37,55 C 52,44 77,44 93,52 C 123,66 137,98 131,137 C 123,175 105,197 64,200 C 20,201 4,170 4,148 L 4,148 z"
     id="p5"
     inkscape:connector-curvature="0" />
  <path
     d="M 8,139 C 6,122 6,78 8,65 C 15,26 30,7 55,2 C 81,-4 116,3 124,35 L 103,36 C 91,14 60,15 46,29 C 34,37 28,68 30,70 C 30,70 50,55 73,55 C 120,55 132,94 130,127 C 129,167 116,198 73,200 C 31,198 12,177 8,139 z M 110,128 C 111,101 98,80 73,77 C 50,76 26,99 27,127 C 29,155 40,179 69,179 C 101,179 110,147 110,128 z"
     id="p6"
     inkscape:connector-curvature="0"
     sodipodi:nodetypes="ccsccccscccsccss" />
  <path
     d="M 37,200 C 50,131 65,79 102,22 H 26 V 46 H 6 V 0 H 117 L 131,22 C 91,64 54,202 61,200 H 37 z"
     id="p7"
     inkscape:connector-curvature="0" />
  <path
     d="M 2,142 C 3,115 13,105 32,90 C 17,79 10,63 12,50 C 15,17 41,0 69,0 C 98,1 123,24 125,48 C 127,69 120,79 105,90 C 123,105 135,115 135,141 C 134,168 111,199 71,200 C 31,201 1,168 2,142 L 2,142 z M 113,142 C 115,117 93,101 69,101 C 45,101 23,121 23,143 C 23,166 51,178 69,178 C 91,178 112,163 113,142 L 113,142 z M 105,55 C 106,34 87,20 67,21 C 50,21 31,34 31,51 C 31,72 52,83 70,83 C 86,84 105,71 105,55 L 105,55 z"
     id="p8"
     inkscape:connector-curvature="0" />
  <path
     d="M 11,161 L 30,156 C 37,174 52,180 67,178 C 94,176 102,146 104,120 C 94,131 78,137 64,136 C 21,134 10,100 10,65 C 9,35 21,13 43,3 C 55,-1 81,-1 92,4 C 118,18 128,42 126,98 C 126,144 117,198 66,200 C 36,204 14,181 11,161 L 11,161 z M 85,111 C 94,105 98,100 102,92 C 106,86 106,83 106,69 C 103,36 86,17 60,21 C 44,23 36,31 33,46 C 24,73 35,105 55,112 C 63,116 78,115 85,111 L 85,111 z"
     id="p9"
     inkscape:connector-curvature="0" />
  <path
     id="p10"
     d="M 6,200 V 0 H 26 V 200 H 6 M 85,0 C 66,0 50,17 50,39 V 162 C 50,183 66,200 85,200 H 96 C 115,200 130,183 130,162 V 39 C 130,17 115,0 96,0 H 85 M 90,19 C 102,19 110,28 110,38 V 163 C 110,174 102,183 90,183 C 79,183 70,174 70,163 V 38 C 70,28 79,19 90,19 L 90,19 z"
     inkscape:connector-curvature="0" />
  <path
     d="M 68,0 V 21 H 88 C 88,21 89,41 89,84 C 89,126 90,146 88,158 C 81,185 40,185 32,166 C 27,155 28,146 28,134 H 6 C 6,134 6,140 6,147 C 6,178 17,193 41,198 C 65,204 95,194 105,174 C 111,162 111,161 111,89 C 111,41 111,21 111,21 H 130 V 0 H 68 z"
     id="pj"
     inkscape:connector-curvature="0" />
  <path
     d="M 24,134 L 6,134 L 6,112 L 24,112 C 24,112 24,60 24,40 C 24,18 40,0 66,0 C 92,0 110,18 110,40 C 110,62 111,148 110,155 C 110,168 108,170 108,171 C 110,176 130,178 130,177 L 130,199 C 115,201 109,199 96,190 C 88,198 65,205 46,196 C 32,190 24,174 24,134 z M 81,174 C 73,162 58,145 44,140 C 44,156 46,165 51,171 C 59,181 71,183 81,174 z M 66,22 C 50,22 44,30 44,70 C 44,94 44,116 44,116 C 67,123 90,150 90,150 L 90,70 C 90,30 82,22 66,22 z"
     id="pq"
     inkscape:connector-curvature="0"
     sodipodi:nodetypes="ccccczzccccccccccczsccsz" />
  <path
     d="M 76,380 L 96,380 L 64,306 L 40,342 L 40,380 L 56,380 L 56,400 L 0,400 L 0,380 L 20,380 L 20,220 L 0,220 L 0,200 L 56,200 L 56,220 L 40,220 L 40,300 L 92.0636,219.841 L 76,220 L 76,200 L 136,200 L 136,220 L 120,220 L 76,288 L 116,380 L 136,380 L 136,400 L 76,400 z"
     id="pk"
     inkscape:connector-curvature="0"
     sodipodi:nodetypes="ccccccccccccccccccccccccccccc" />
  <path
     d="M 6,200 V 183 H 23 L 58,0 H 78 L 117,183 H 131 V 200 H 85 V 183 H 97 L 92,156 H 46 L 42,183 H 54 V 200 H 6 z M 88,135 L 68,37 L 49,135 H 88 z"
     id="pa"
     inkscape:connector-curvature="0" />
</svg>
