<?xml version="1.0" encoding="UTF-8" standalone="no"?>

<svg
xmlns:dc="http://purl.org/dc/elements/1.1/"
xmlns:cc="http://creativecommons.org/ns#"
xmlns:rdf="http://www.w3.org/1999/02/22-rdf-syntax-ns#"
xmlns:svg="http://www.w3.org/2000/svg"
xmlns="http://www.w3.org/2000/svg"
xmlns:sodipodi="http://sodipodi.sourceforge.net/DTD/sodipodi-0.dtd"
width="400"
height="400"
id="pokerIcon"
version="1.1"
sodipodi:docname="poker.svg">
	<metadata
	id="metadata2995">
		<rdf:RDF>
			<cc:Work
			rdf:about="">
				<dc:format>image/svg+xml</dc:format>
				<dc:type
				rdf:resource="http://purl.org/dc/dcmitype/StillImage" />
			</cc:Work>
		</rdf:RDF>
	</metadata>
	<defs
	id="defs2993" />
	<sodipodi:namedview
	pagecolor="#ffffff"
	bordercolor="#666666"
	borderopacity="1"
	objecttolerance="10"
	gridtolerance="10"
	guidetolerance="10"
	id="namedview2991"
	showgrid="false" />
	<path
	d="M 100,40 C 60,20 0,20 0,80 C 0,128 100,180 100,180 C 100,180 200,128 200,80 C 200,20 140,20 100,40 z"
	style="fill:#ff0000;stroke:#000000;stroke-width:0;stroke-linecap:butt;stroke-linejoin:miter;stroke-miterlimit:4;stroke-opacity:1;stroke-dasharray:none"
	id="hearts" />
	<path
	d="M 384,100 C 352,120 320,160 300,200 C 280,160 248,120 216,100 C 248,80 280,40 300,0 C 320,40 352,80 384,100 z"
	style="fill:#ff0000;stroke:#000000;stroke-width:0;stroke-linecap:butt;stroke-linejoin:miter;stroke-miterlimit:4;stroke-opacity:1;stroke-dasharray:none"
	id="diamonds" />
	<path
	d="M 200,320 C 200,368 144,376 116,356 C 116,380 116,388 128,400 C 112,396 88,396 72,400 C 84,388 84,380 84,356 C 56,376 0,368 0,320 C 0,272 60,236 100,200 C 140,236 200,272 200,320 z"
	style="fill:#000000;stroke:#000000;stroke-width:0;stroke-linecap:butt;stroke-linejoin:miter;stroke-miterlimit:4;stroke-opacity:1;stroke-dasharray:none"
	id="spades" />
	<path
	d="M 280,400 C 292,384 292,360 292,336 C 276,380 200,376 200,324 C 200,280 240,276 268,288 C 280,292 280,288 272,284 C 244,264 240,200 300,200 C 360,200 356,264 328,284 C 320,288 320,292 332,288 C 360,276 400,280 400,324 C 400,376 324,380 308,336 C 308,360 308,384 320,400 C 300,396 300,396 280,400 z"
	style="fill:#000000;stroke:#000000;stroke-width:0;stroke-linecap:butt;stroke-linejoin:miter;stroke-miterlimit:4;stroke-opacity:1;stroke-dasharray:none"
	id="clubs" />
</svg>
